<svg version="1.1" xmlns="http://www.w3.org/2000/svg" xmlns:xlink="http://www.w3.org/1999/xlink" width="1066.4" height="910.2"><defs><linearGradient id="grHTebrIcoJQ" x1="2143.0000007152557px" x2="2454.2px" y1="2747.0833413203554px" y2="2823.950008225441px" gradientUnits="userSpaceOnUse"><stop offset="0" stop-color="rgb(132,80,186)" stop-opacity="1"/><stop offset="1" stop-color="rgb(132,80,186)" stop-opacity="1"/></linearGradient><linearGradient id="BsIxSxyrVvOp" x1="2143.0000007152557px" x2="2454.2px" y1="2747.0833413203554px" y2="2823.950008225441px" gradientUnits="userSpaceOnUse"><stop offset="0" stop-color="rgb(132,80,186)" stop-opacity="1"/><stop offset="1" stop-color="rgb(132,80,186)" stop-opacity="1"/></linearGradient><linearGradient id="qqkJcZHitTMe" x1="1303.0000007152557px" x2="1079.5000003576279px" y1="341.5px" y2="1601.2333381017047px" gradientUnits="userSpaceOnUse"><stop offset="0" stop-color="rgb(255,193,7)" stop-opacity="1"/><stop offset="1" stop-color="rgb(132,80,186)" stop-opacity="1"/></linearGradient><linearGradient id="WqTNDMpMOBrc" x1="1303.0000007152557px" x2="1079.5000003576279px" y1="341.5px" y2="1601.2333381017047px" gradientUnits="userSpaceOnUse"><stop offset="0" stop-color="rgb(255,193,7)" stop-opacity="1"/><stop offset="1" stop-color="rgb(132,80,186)" stop-opacity="1"/></linearGradient><linearGradient id="fJKNZQINMFrI" x1="1303.0000007152557px" x2="1079.5000003576279px" y1="474.50000071525574px" y2="1601.2333381017047px" gradientUnits="userSpaceOnUse"><stop offset="0" stop-color="rgb(255,193,7)" stop-opacity="1"/><stop offset="1" stop-color="rgb(132,80,186)" stop-opacity="1"/></linearGradient><linearGradient id="kFfDyXxoaAyg" x1="1303.0000007152557px" x2="1079.5000003576279px" y1="474.50000071525574px" y2="1601.2333381017047px" gradientUnits="userSpaceOnUse"><stop offset="0" stop-color="rgb(255,193,7)" stop-opacity="1"/><stop offset="1" stop-color="rgb(132,80,186)" stop-opacity="1"/></linearGradient><linearGradient id="sbWqwPyFcPDn" x1="1079.5000003576279px" x2="2306.0000014305115px" y1="1601.2333381017047px" y2="607.5000014305115px" gradientUnits="userSpaceOnUse"><stop offset="0" stop-color="rgb(132,80,186)" stop-opacity="1"/><stop offset="1" stop-color="rgb(0,0,0)" stop-opacity="1"/></linearGradient><linearGradient id="RQWpCtGRodMK" x1="1079.5000003576279px" x2="2306.0000014305115px" y1="1601.2333381017047px" y2="740.5000021457672px" gradientUnits="userSpaceOnUse"><stop offset="0" stop-color="rgb(132,80,186)" stop-opacity="1"/><stop offset="1" stop-color="rgb(0,0,0)" stop-opacity="1"/></linearGradient><linearGradient id="TLwFIJRToVMH" x1="1079.5000003576279px" x2="2306.0000014305115px" y1="1601.2333381017047px" y2="873.500002861023px" gradientUnits="userSpaceOnUse"><stop offset="0" stop-color="rgb(132,80,186)" stop-opacity="1"/><stop offset="1" stop-color="rgb(0,0,0)" stop-opacity="1"/></linearGradient><linearGradient id="DoyiOXvWXXEd" x1="1079.5000003576279px" x2="2306.0000014305115px" y1="1601.2333381017047px" y2="474.50000071525574px" gradientUnits="userSpaceOnUse"><stop offset="0" stop-color="rgb(132,80,186)" stop-opacity="1"/><stop offset="1" stop-color="rgb(0,0,0)" stop-opacity="1"/></linearGradient><linearGradient id="ZyuSCdXWGghu" x1="776.5px" x2="1329.0000007152557px" y1="1851.7333381017047px" y2="1951.7333381017047px" gradientUnits="userSpaceOnUse"><stop offset="0" stop-color="rgb(255,193,7)" stop-opacity="1"/><stop offset="1" stop-color="rgb(211,211,211)" stop-opacity="1"/></linearGradient><linearGradient id="wGicCbXZyfex" x1="1603.0000007152557px" x2="500px" y1="1990.7333381017047px" y2="3602.433344539006px" gradientUnits="userSpaceOnUse"><stop offset="0" stop-color="rgb(211,211,211)" stop-opacity="1"/><stop offset="1" stop-color="rgb(29,122,218)" stop-opacity="1"/></linearGradient><linearGradient id="wVIZdfWuiTwd" x1="1329.0000007152557px" x2="776.5px" y1="1951.7333381017047px" y2="2579.9333388169603px" gradientUnits="userSpaceOnUse"><stop offset="0" stop-color="rgb(211,211,211)" stop-opacity="1"/><stop offset="1" stop-color="rgb(29,122,218)" stop-opacity="1"/></linearGradient><linearGradient id="JkfgHAXFsAwI" x1="1603.0000007152557px" x2="500px" y1="1990.7333381017047px" y2="3469.4333438237504px" gradientUnits="userSpaceOnUse"><stop offset="0" stop-color="rgb(211,211,211)" stop-opacity="1"/><stop offset="1" stop-color="rgb(29,122,218)" stop-opacity="1"/></linearGradient><linearGradient id="pegqVIVxpeFK" x1="1603.0000007152557px" x2="500px" y1="1990.7333381017047px" y2="2671.433339532216px" gradientUnits="userSpaceOnUse"><stop offset="0" stop-color="rgb(211,211,211)" stop-opacity="1"/><stop offset="1" stop-color="rgb(29,122,218)" stop-opacity="1"/></linearGradient><linearGradient id="PUBJKfghotEZ" x1="1603.0000007152557px" x2="500px" y1="1990.7333381017047px" y2="2804.4333402474717px" gradientUnits="userSpaceOnUse"><stop offset="0" stop-color="rgb(211,211,211)" stop-opacity="1"/><stop offset="1" stop-color="rgb(29,122,218)" stop-opacity="1"/></linearGradient><linearGradient id="LbalESWDxPGr" x1="1603.0000007152557px" x2="500px" y1="1990.7333381017047px" y2="2937.4333409627275px" gradientUnits="userSpaceOnUse"><stop offset="0" stop-color="rgb(211,211,211)" stop-opacity="1"/><stop offset="1" stop-color="rgb(29,122,218)" stop-opacity="1"/></linearGradient><linearGradient id="SboWTDLbkAFl" x1="1603.0000007152557px" x2="500px" y1="1990.7333381017047px" y2="3203.433342393239px" gradientUnits="userSpaceOnUse"><stop offset="0" stop-color="rgb(211,211,211)" stop-opacity="1"/><stop offset="1" stop-color="rgb(29,122,218)" stop-opacity="1"/></linearGradient><linearGradient id="vZwcCLEJxmwn" x1="1603.0000007152557px" x2="500px" y1="1990.7333381017047px" y2="3070.433341677983px" gradientUnits="userSpaceOnUse"><stop offset="0" stop-color="rgb(211,211,211)" stop-opacity="1"/><stop offset="1" stop-color="rgb(29,122,218)" stop-opacity="1"/></linearGradient><linearGradient id="EccWmIayBXmg" x1="1603.0000007152557px" x2="500px" y1="1990.7333381017047px" y2="3336.4333431084947px" gradientUnits="userSpaceOnUse"><stop offset="0" stop-color="rgb(211,211,211)" stop-opacity="1"/><stop offset="1" stop-color="rgb(29,122,218)" stop-opacity="1"/></linearGradient><linearGradient id="XUaTpHhcoGQa" x1="3596.2000003576277px" x2="2306.0000014305115px" y1="1447.5000042915342px" y2="1006.5000035762787px" gradientUnits="userSpaceOnUse"><stop offset="0" stop-color="rgb(132,80,186)" stop-opacity="1"/><stop offset="1" stop-color="rgb(0,0,0)" stop-opacity="1"/></linearGradient><linearGradient id="daMTqFkUkxvC" x1="3596.2000003576277px" x2="2306.0000014305115px" y1="1447.5000042915342px" y2="341.5px" gradientUnits="userSpaceOnUse"><stop offset="0" stop-color="rgb(132,80,186)" stop-opacity="1"/><stop offset="1" stop-color="rgb(0,0,0)" stop-opacity="1"/></linearGradient><linearGradient id="cHytMiQdpsqq" x1="3371.7px" x2="3924.2000007152556px" y1="1964.000005722046px" y2="2126.20000500679px" gradientUnits="userSpaceOnUse"><stop offset="0" stop-color="rgb(255,193,7)" stop-opacity="1"/><stop offset="1" stop-color="rgb(211,211,211)" stop-opacity="1"/></linearGradient><linearGradient id="ZCBQmuOgATca" x1="3371.7px" x2="3924.2000007152556px" y1="1698.0000042915344px" y2="1798.0000042915344px" gradientUnits="userSpaceOnUse"><stop offset="0" stop-color="rgb(255,193,7)" stop-opacity="1"/><stop offset="1" stop-color="rgb(211,211,211)" stop-opacity="1"/></linearGradient><linearGradient id="SPVlhMCasIbm" x1="4198.200000715256px" x2="3095.2px" y1="1837.0000042915344px" y2="2712.900005722046px" gradientUnits="userSpaceOnUse"><stop offset="0" stop-color="rgb(211,211,211)" stop-opacity="1"/><stop offset="1" stop-color="rgb(29,122,218)" stop-opacity="1"/></linearGradient><linearGradient id="pFbwSSTiTEPh" x1="4198.200000715256px" x2="3095.2px" y1="1837.0000042915344px" y2="3776.900011444092px" gradientUnits="userSpaceOnUse"><stop offset="0" stop-color="rgb(211,211,211)" stop-opacity="1"/><stop offset="1" stop-color="rgb(29,122,218)" stop-opacity="1"/></linearGradient><linearGradient id="rXHAGHXfwttm" x1="4198.200000715256px" x2="3095.2px" y1="1837.0000042915344px" y2="3244.900008583069px" gradientUnits="userSpaceOnUse"><stop offset="0" stop-color="rgb(211,211,211)" stop-opacity="1"/><stop offset="1" stop-color="rgb(29,122,218)" stop-opacity="1"/></linearGradient><linearGradient id="WXpVUJMeqrDu" x1="4198.200000715256px" x2="3095.2px" y1="1837.0000042915344px" y2="2845.9000064373017px" gradientUnits="userSpaceOnUse"><stop offset="0" stop-color="rgb(211,211,211)" stop-opacity="1"/><stop offset="1" stop-color="rgb(29,122,218)" stop-opacity="1"/></linearGradient><linearGradient id="oKqsQJPdAsLP" x1="4198.200000715256px" x2="3095.2px" y1="1837.0000042915344px" y2="3111.900007867813px" gradientUnits="userSpaceOnUse"><stop offset="0" stop-color="rgb(211,211,211)" stop-opacity="1"/><stop offset="1" stop-color="rgb(29,122,218)" stop-opacity="1"/></linearGradient><linearGradient id="mVgVMGERaRVT" x1="4198.200000715256px" x2="3095.2px" y1="1837.0000042915344px" y2="3510.9000100135804px" gradientUnits="userSpaceOnUse"><stop offset="0" stop-color="rgb(211,211,211)" stop-opacity="1"/><stop offset="1" stop-color="rgb(29,122,218)" stop-opacity="1"/></linearGradient><linearGradient id="RzzFysQFJzis" x1="4198.200000715256px" x2="3095.2px" y1="1837.0000042915344px" y2="3643.900010728836px" gradientUnits="userSpaceOnUse"><stop offset="0" stop-color="rgb(211,211,211)" stop-opacity="1"/><stop offset="1" stop-color="rgb(29,122,218)" stop-opacity="1"/></linearGradient><linearGradient id="eKTpfFUlnzsU" x1="4198.200000715256px" x2="3095.2px" y1="1837.0000042915344px" y2="3909.9000121593476px" gradientUnits="userSpaceOnUse"><stop offset="0" stop-color="rgb(211,211,211)" stop-opacity="1"/><stop offset="1" stop-color="rgb(29,122,218)" stop-opacity="1"/></linearGradient><linearGradient id="sxmrwqgoPoTK" x1="4198.200000715256px" x2="3095.2px" y1="2165.20000500679px" y2="3377.9000092983247px" gradientUnits="userSpaceOnUse"><stop offset="0" stop-color="rgb(211,211,211)" stop-opacity="1"/><stop offset="1" stop-color="rgb(29,122,218)" stop-opacity="1"/></linearGradient><linearGradient id="MmnFTKSfpKCq" x1="4198.200000715256px" x2="4198.200000715256px" y1="2087.20000500679px" y2="1837.0000042915344px" gradientUnits="userSpaceOnUse"><stop offset="0" stop-color="rgb(211,211,211)" stop-opacity="1"/><stop offset="1" stop-color="rgb(211,211,211)" stop-opacity="1"/></linearGradient></defs><g transform="translate(57.7,9.200000000000001) scale(0.2,0.2)"><path fill="rgb(244,236,255)" stroke="rgb(255,255,255)" paint-order="fill stroke markers" d=" M 2377.100000357628 -44 L 5032.700000715256 -44 L 5032.700000715256 -44 A 8 8 0 0 1 5040.700000715256 -36 L 5040.700000715256 4494.900012159347 L 5040.700000715256 4494.900012159347 A 8 8 0 0 1 5032.700000715256 4502.900012159347 L -278.5 4502.900012159347 L -278.5 4502.900012159347 A 8 8 0 0 1 -286.5 4494.900012159347 L -286.5 -36 L -286.5 -36 A 8 8 0 0 1 -278.5 -44 L 2377.100000357628 -44 Z" fill-opacity="1" stroke-opacity="1" stroke-miterlimit="10" stroke-width="2"/><text fill="rgb(0,0,0)" stroke="none" font-family="Avenir, Helvetica, Arial, sans-serif" font-size="32px" font-style="normal" font-weight="bold" text-decoration="normal" x="2377.100000357628" y="31" text-anchor="middle" dominant-baseline="text-after-edge" fill-opacity="1">.</text><path fill="rgb(255,255,255)" stroke="rgb(211,211,211)" paint-order="fill stroke markers" d=" M 1303.0000007152557 157.5 L 1672.5000007152557 157.5 L 1672.5000007152557 157.5 A 8 8 0 0 1 1680.5000007152557 165.5 L 1680.5000007152557 567.5000007152557 L 1680.5000007152557 567.5000007152557 A 8 8 0 0 1 1672.5000007152557 575.5000007152557 L 933.5000007152557 575.5000007152557 L 933.5000007152557 575.5000007152557 A 8 8 0 0 1 925.5000007152557 567.5000007152557 L 925.5000007152557 165.5 L 925.5000007152557 165.5 A 8 8 0 0 1 933.5000007152557 157.5 L 1303.0000007152557 157.5 Z" fill-opacity="1" stroke-opacity="1" stroke-miterlimit="10"/><text fill="rgb(0,0,0)" stroke="none" font-family="Avenir, Helvetica, Arial, sans-serif" font-size="32px" font-style="normal" font-weight="bold" text-decoration="normal" x="1303.0000007152557" y="232.5" text-anchor="middle" dominant-baseline="text-after-edge" fill-opacity="1">outputs.tf</text><path fill="rgb(255,255,255)" stroke="rgb(211,211,211)" paint-order="fill stroke markers" d=" M 300 157.5 L 669.5 157.5 L 669.5 157.5 A 8 8 0 0 1 677.5 165.5 L 677.5 434.5 L 677.5 434.5 A 8 8 0 0 1 669.5 442.5 L -69.5 442.5 L -69.5 442.5 A 8 8 0 0 1 -77.5 434.5 L -77.5 165.5 L -77.5 165.5 A 8 8 0 0 1 -69.5 157.5 L 300 157.5 Z" fill-opacity="1" stroke-opacity="1" stroke-miterlimit="10"/><text fill="rgb(0,0,0)" stroke="none" font-family="Avenir, Helvetica, Arial, sans-serif" font-size="32px" font-style="normal" font-weight="bold" text-decoration="normal" x="300" y="232.5" text-anchor="middle" dominant-baseline="text-after-edge" fill-opacity="1">variables.tf</text><path fill="rgb(255,255,255)" stroke="rgb(211,211,211)" paint-order="fill stroke markers" d=" M 2377.100000357628 1346.5000042915344 L 4831.200000715256 1346.5000042915344 L 4831.200000715256 1346.5000042915344 A 8 8 0 0 1 4839.200000715256 1354.5000042915344 L 4839.200000715256 4293.400012159347 L 4839.200000715256 4293.400012159347 A 8 8 0 0 1 4831.200000715256 4301.400012159347 L -77 4301.400012159347 L -77 4301.400012159347 A 8 8 0 0 1 -85 4293.400012159347 L -85 1354.5000042915344 L -85 1354.5000042915344 A 8 8 0 0 1 -77 1346.5000042915344 L 2377.100000357628 1346.5000042915344 Z" fill-opacity="1" stroke-opacity="1" stroke-miterlimit="10"/><text fill="rgb(0,0,0)" stroke="none" font-family="Avenir, Helvetica, Arial, sans-serif" font-size="32px" font-style="normal" font-weight="bold" text-decoration="normal" x="2377.100000357628" y="1421.5000042915344" text-anchor="middle" dominant-baseline="text-after-edge" fill-opacity="1">main.tf</text><path fill="rgb(255,255,255)" stroke="rgb(211,211,211)" paint-order="fill stroke markers" d=" M 2306.0000014305115 157.5 L 2675.5000014305115 157.5 L 2675.5000014305115 157.5 A 8 8 0 0 1 2683.5000014305115 165.5 L 2683.5000014305115 1099.5000035762787 L 2683.5000014305115 1099.5000035762787 A 8 8 0 0 1 2675.5000014305115 1107.5000035762787 L 1936.5000014305115 1107.5000035762787 L 1936.5000014305115 1107.5000035762787 A 8 8 0 0 1 1928.5000014305115 1099.5000035762787 L 1928.5000014305115 165.5 L 1928.5000014305115 165.5 A 8 8 0 0 1 1936.5000014305115 157.5 L 2306.0000014305115 157.5 Z" fill-opacity="1" stroke-opacity="1" stroke-miterlimit="10"/><text fill="rgb(0,0,0)" stroke="none" font-family="Avenir, Helvetica, Arial, sans-serif" font-size="32px" font-style="normal" font-weight="bold" text-decoration="normal" x="2306.0000014305115" y="232.5" text-anchor="middle" dominant-baseline="text-after-edge" fill-opacity="1">unknown file</text><path fill="none" stroke="url(#grHTebrIcoJQ)" paint-order="fill stroke markers" d=" M 2143.0000007152557 2747.0833413203554 L 2298.600000357628 2747.0833413203554 L 2298.600000357628 2823.950008225441 L 2454.2 2823.950008225441" stroke-linejoin="round" stroke-miterlimit="10" stroke-width="10"/><path fill="none" stroke="url(#BsIxSxyrVvOp)" paint-order="fill stroke markers" d=" M 2143.0000007152557 2747.0833413203554 L 2298.600000357628 2747.0833413203554 L 2298.600000357628 2823.950008225441 L 2454.2 2823.950008225441" stroke-linejoin="round" stroke-miterlimit="10" stroke-width="10"/><path fill="rgb(255,255,255)" stroke="rgb(132,80,186)" paint-order="fill stroke markers" d=" M 1079.5000003576279 1606.2333381017047 L 2130.0000007152557 1606.2333381017047 L 2130.0000007152557 1606.2333381017047 A 8 8 0 0 1 2138.0000007152557 1614.2333381017047 L 2138.0000007152557 3879.933344539006 L 2138.0000007152557 3879.933344539006 A 8 8 0 0 1 2130.0000007152557 3887.933344539006 L 29 3887.933344539006 L 29 3887.933344539006 A 8 8 0 0 1 21 3879.933344539006 L 21 1614.2333381017047 L 21 1614.2333381017047 A 8 8 0 0 1 29 1606.2333381017047 L 1079.5000003576279 1606.2333381017047 Z" fill-opacity="1" stroke-opacity="1" stroke-miterlimit="10" stroke-width="10"/><text fill="rgb(132,80,186)" stroke="none" font-family="Avenir, Helvetica, Arial, sans-serif" font-size="32px" font-style="normal" font-weight="bold" text-decoration="normal" x="1079.5000003576279" y="1666.2333381017047" text-anchor="middle" dominant-baseline="text-after-edge" fill-opacity="1">tfe_oauth_client</text><path fill="rgb(255,255,255)" stroke="rgb(132,80,186)" paint-order="fill stroke markers" d=" M 3596.2000003576277 1452.5000042915342 L 4725.200000715256 1452.5000042915342 L 4725.200000715256 1452.5000042915342 A 8 8 0 0 1 4733.200000715256 1460.5000042915342 L 4733.200000715256 4187.400012159347 L 4733.200000715256 4187.400012159347 A 8 8 0 0 1 4725.200000715256 4195.400012159347 L 2467.2 4195.400012159347 L 2467.2 4195.400012159347 A 8 8 0 0 1 2459.2 4187.400012159347 L 2459.2 1460.5000042915342 L 2459.2 1460.5000042915342 A 8 8 0 0 1 2467.2 1452.5000042915342 L 3596.2000003576277 1452.5000042915342 Z" fill-opacity="1" stroke-opacity="1" stroke-miterlimit="10" stroke-width="10"/><text fill="rgb(132,80,186)" stroke="none" font-family="Avenir, Helvetica, Arial, sans-serif" font-size="32px" font-style="normal" font-weight="bold" text-decoration="normal" x="3596.2000003576277" y="1512.5000042915342" text-anchor="middle" dominant-baseline="text-after-edge" fill-opacity="1">tfe_organization</text><path fill="rgb(255,255,255)" stroke="rgb(211,211,211)" paint-order="fill stroke markers" d=" M 500 1709.2333381017047 L 869.5 1709.2333381017047 L 869.5 1709.2333381017047 A 8 8 0 0 1 877.5 1717.2333381017047 L 877.5 1986.2333381017047 L 877.5 1986.2333381017047 A 8 8 0 0 1 869.5 1994.2333381017047 L 130.5 1994.2333381017047 L 130.5 1994.2333381017047 A 8 8 0 0 1 122.5 1986.2333381017047 L 122.5 1717.2333381017047 L 122.5 1717.2333381017047 A 8 8 0 0 1 130.5 1709.2333381017047 L 500 1709.2333381017047 Z" fill-opacity="1" stroke-opacity="1" stroke-miterlimit="10"/><text fill="rgb(0,0,0)" stroke="none" font-family="Avenir, Helvetica, Arial, sans-serif" font-size="32px" font-style="normal" font-weight="bold" text-decoration="normal" x="500" y="1784.2333381017047" text-anchor="middle" dominant-baseline="text-after-edge" fill-opacity="1">outputs.tf</text><path fill="rgb(255,255,255)" stroke="rgb(211,211,211)" paint-order="fill stroke markers" d=" M 500 2437.4333388169603 L 869.5 2437.4333388169603 L 869.5 2437.4333388169603 A 8 8 0 0 1 877.5 2445.4333388169603 L 877.5 3778.433344539006 L 877.5 3778.433344539006 A 8 8 0 0 1 869.5 3786.433344539006 L 130.5 3786.433344539006 L 130.5 3786.433344539006 A 8 8 0 0 1 122.5 3778.433344539006 L 122.5 2445.4333388169603 L 122.5 2445.4333388169603 A 8 8 0 0 1 130.5 2437.4333388169603 L 500 2437.4333388169603 Z" fill-opacity="1" stroke-opacity="1" stroke-miterlimit="10"/><text fill="rgb(0,0,0)" stroke="none" font-family="Avenir, Helvetica, Arial, sans-serif" font-size="32px" font-style="normal" font-weight="bold" text-decoration="normal" x="500" y="2512.4333388169603" text-anchor="middle" dominant-baseline="text-after-edge" fill-opacity="1">variables.tf</text><path fill="rgb(255,255,255)" stroke="rgb(211,211,211)" paint-order="fill stroke markers" d=" M 1603.0000007152557 1707.7333381017047 L 2028.5000007152557 1707.7333381017047 L 2028.5000007152557 1707.7333381017047 A 8 8 0 0 1 2036.5000007152557 1715.7333381017047 L 2036.5000007152557 2142.2333381017047 L 2036.5000007152557 2142.2333381017047 A 8 8 0 0 1 2028.5000007152557 2150.2333381017047 L 1177.5000007152557 2150.2333381017047 L 1177.5000007152557 2150.2333381017047 A 8 8 0 0 1 1169.5000007152557 2142.2333381017047 L 1169.5000007152557 1715.7333381017047 L 1169.5000007152557 1715.7333381017047 A 8 8 0 0 1 1177.5000007152557 1707.7333381017047 L 1603.0000007152557 1707.7333381017047 Z" fill-opacity="1" stroke-opacity="1" stroke-miterlimit="10"/><text fill="rgb(0,0,0)" stroke="none" font-family="Avenir, Helvetica, Arial, sans-serif" font-size="32px" font-style="normal" font-weight="bold" text-decoration="normal" x="1603.0000007152557" y="1782.7333381017047" text-anchor="middle" dominant-baseline="text-after-edge" fill-opacity="1">main.tf</text><path fill="rgb(255,255,255)" stroke="rgb(211,211,211)" paint-order="fill stroke markers" d=" M 3095.2 1555.5000042915344 L 3464.7 1555.5000042915344 L 3464.7 1555.5000042915344 A 8 8 0 0 1 3472.7 1563.5000042915344 L 3472.7 2098.500005722046 L 3472.7 2098.500005722046 A 8 8 0 0 1 3464.7 2106.500005722046 L 2725.7 2106.500005722046 L 2725.7 2106.500005722046 A 8 8 0 0 1 2717.7 2098.500005722046 L 2717.7 1563.5000042915344 L 2717.7 1563.5000042915344 A 8 8 0 0 1 2725.7 1555.5000042915344 L 3095.2 1555.5000042915344 Z" fill-opacity="1" stroke-opacity="1" stroke-miterlimit="10"/><text fill="rgb(0,0,0)" stroke="none" font-family="Avenir, Helvetica, Arial, sans-serif" font-size="32px" font-style="normal" font-weight="bold" text-decoration="normal" x="3095.2" y="1630.5000042915344" text-anchor="middle" dominant-baseline="text-after-edge" fill-opacity="1">outputs.tf</text><path fill="rgb(255,255,255)" stroke="rgb(211,211,211)" paint-order="fill stroke markers" d=" M 3095.2 2611.900005722046 L 3621.7 2611.900005722046 L 3621.7 2611.900005722046 A 8 8 0 0 1 3629.7 2619.900005722046 L 3629.7 4085.9000121593476 L 3629.7 4085.9000121593476 A 8 8 0 0 1 3621.7 4093.9000121593476 L 2568.7 4093.9000121593476 L 2568.7 4093.9000121593476 A 8 8 0 0 1 2560.7 4085.9000121593476 L 2560.7 2619.900005722046 L 2560.7 2619.900005722046 A 8 8 0 0 1 2568.7 2611.900005722046 L 3095.2 2611.900005722046 Z" fill-opacity="1" stroke-opacity="1" stroke-miterlimit="10"/><text fill="rgb(0,0,0)" stroke="none" font-family="Avenir, Helvetica, Arial, sans-serif" font-size="32px" font-style="normal" font-weight="bold" text-decoration="normal" x="3095.2" y="2686.900005722046" text-anchor="middle" dominant-baseline="text-after-edge" fill-opacity="1">variables.tf</text><path fill="rgb(255,255,255)" stroke="rgb(211,211,211)" paint-order="fill stroke markers" d=" M 4198.200000715256 1554.0000042915344 L 4623.700000715256 1554.0000042915344 L 4623.700000715256 1554.0000042915344 A 8 8 0 0 1 4631.700000715256 1562.0000042915344 L 4631.700000715256 2316.70000500679 L 4631.700000715256 2316.70000500679 A 8 8 0 0 1 4623.700000715256 2324.70000500679 L 3772.7000007152556 2324.70000500679 L 3772.7000007152556 2324.70000500679 A 8 8 0 0 1 3764.7000007152556 2316.70000500679 L 3764.7000007152556 1562.0000042915344 L 3764.7000007152556 1562.0000042915344 A 8 8 0 0 1 3772.7000007152556 1554.0000042915344 L 4198.200000715256 1554.0000042915344 Z" fill-opacity="1" stroke-opacity="1" stroke-miterlimit="10"/><text fill="rgb(0,0,0)" stroke="none" font-family="Avenir, Helvetica, Arial, sans-serif" font-size="32px" font-style="normal" font-weight="bold" text-decoration="normal" x="4198.200000715256" y="1629.0000042915344" text-anchor="middle" dominant-baseline="text-after-edge" fill-opacity="1">main.tf</text><path fill="rgb(255,255,255)" stroke="rgb(0,0,0)" paint-order="fill stroke markers" d=" M 1603.0000007152557 1856.7333381017047 L 1925.0000007152557 1856.7333381017047 L 1925.0000007152557 1856.7333381017047 A 8 8 0 0 1 1933.0000007152557 1864.7333381017047 L 1933.0000007152557 2038.7333381017047 L 1933.0000007152557 2038.7333381017047 A 8 8 0 0 1 1925.0000007152557 2046.7333381017047 L 1281.0000007152557 2046.7333381017047 L 1281.0000007152557 2046.7333381017047 A 8 8 0 0 1 1273.0000007152557 2038.7333381017047 L 1273.0000007152557 1864.7333381017047 L 1273.0000007152557 1864.7333381017047 A 8 8 0 0 1 1281.0000007152557 1856.7333381017047 L 1603.0000007152557 1856.7333381017047 Z" fill-opacity="1" stroke-opacity="1" stroke-miterlimit="10" stroke-width="5"/><rect fill="rgb(255,255,255)" stroke="none" x="1450.5000007152557" y="1807.7333381017047" width="305" height="96" fill-opacity="1"/><text fill="rgb(0,0,0)" stroke="none" font-family="Avenir, Helvetica, Arial, sans-serif" font-size="32px" font-style="normal" font-weight="bold" text-decoration="normal" x="1603.0000007152557" y="1871.7333381017047" text-anchor="middle" dominant-baseline="text-after-edge" fill-opacity="1">tfe_oauth_client</text><path fill="rgb(255,255,255)" stroke="rgb(0,0,0)" paint-order="fill stroke markers" d=" M 4198.200000715256 1703.0000042915344 L 4520.200000715256 1703.0000042915344 L 4520.200000715256 1703.0000042915344 A 8 8 0 0 1 4528.200000715256 1711.0000042915344 L 4528.200000715256 1885.0000042915344 L 4528.200000715256 1885.0000042915344 A 8 8 0 0 1 4520.200000715256 1893.0000042915344 L 3876.2000007152556 1893.0000042915344 L 3876.2000007152556 1893.0000042915344 A 8 8 0 0 1 3868.2000007152556 1885.0000042915344 L 3868.2000007152556 1711.0000042915344 L 3868.2000007152556 1711.0000042915344 A 8 8 0 0 1 3876.2000007152556 1703.0000042915344 L 4198.200000715256 1703.0000042915344 Z" fill-opacity="1" stroke-opacity="1" stroke-miterlimit="10" stroke-width="5"/><rect fill="rgb(255,255,255)" stroke="none" x="4043.7000007152556" y="1654.0000042915344" width="309" height="96" fill-opacity="1"/><text fill="rgb(0,0,0)" stroke="none" font-family="Avenir, Helvetica, Arial, sans-serif" font-size="32px" font-style="normal" font-weight="bold" text-decoration="normal" x="4198.200000715256" y="1718.0000042915344" text-anchor="middle" dominant-baseline="text-after-edge" fill-opacity="1">tfe_organization</text><path fill="rgb(255,255,255)" stroke="rgb(0,0,0)" paint-order="fill stroke markers" d=" M 4198.200000715256 2031.20000500679 L 4520.200000715256 2031.20000500679 L 4520.200000715256 2031.20000500679 A 8 8 0 0 1 4528.200000715256 2039.20000500679 L 4528.200000715256 2213.20000500679 L 4528.200000715256 2213.20000500679 A 8 8 0 0 1 4520.200000715256 2221.20000500679 L 3876.2000007152556 2221.20000500679 L 3876.2000007152556 2221.20000500679 A 8 8 0 0 1 3868.2000007152556 2213.20000500679 L 3868.2000007152556 2039.20000500679 L 3868.2000007152556 2039.20000500679 A 8 8 0 0 1 3876.2000007152556 2031.20000500679 L 4198.200000715256 2031.20000500679 Z" fill-opacity="1" stroke-opacity="1" stroke-miterlimit="10" stroke-width="5"/><rect fill="rgb(255,255,255)" stroke="none" x="3992.7000007152556" y="1982.20000500679" width="411" height="96" fill-opacity="1"/><text fill="rgb(0,0,0)" stroke="none" font-family="Avenir, Helvetica, Arial, sans-serif" font-size="32px" font-style="normal" font-weight="bold" text-decoration="normal" x="4198.200000715256" y="2046.20000500679" text-anchor="middle" dominant-baseline="text-after-edge" fill-opacity="1">tfe_organization_token</text><path fill="none" stroke="url(#qqkJcZHitTMe)" paint-order="fill stroke markers" d=" M 1303.0000007152557 341.5 L 1303.0000007152557 971.3666690508524 L 1079.5000003576279 971.3666690508524 L 1079.5000003576279 1601.2333381017047" stroke-linejoin="round" stroke-miterlimit="10" stroke-width="10"/><path fill="none" stroke="url(#WqTNDMpMOBrc)" paint-order="fill stroke markers" d=" M 1303.0000007152557 341.5 L 1303.0000007152557 971.3666690508524 L 1079.5000003576279 971.3666690508524 L 1079.5000003576279 1601.2333381017047" stroke-linejoin="round" stroke-miterlimit="10" stroke-width="10"/><path fill="none" stroke="url(#fJKNZQINMFrI)" paint-order="fill stroke markers" d=" M 1303.0000007152557 474.50000071525574 L 1303.0000007152557 1037.8666694084802 L 1079.5000003576279 1037.8666694084802 L 1079.5000003576279 1601.2333381017047" stroke-linejoin="round" stroke-miterlimit="10" stroke-width="10"/><path fill="none" stroke="url(#kFfDyXxoaAyg)" paint-order="fill stroke markers" d=" M 1303.0000007152557 474.50000071525574 L 1303.0000007152557 1037.8666694084802 L 1079.5000003576279 1037.8666694084802 L 1079.5000003576279 1601.2333381017047" stroke-linejoin="round" stroke-miterlimit="10" stroke-width="10"/><path fill="none" stroke="url(#sbWqwPyFcPDn)" paint-order="fill stroke markers" d=" M 1079.5000003576279 1601.2333381017047 L 1079.5000003576279 1104.3666697661079 L 2306.0000014305115 1104.3666697661079 L 2306.0000014305115 607.5000014305115" stroke-linejoin="round" stroke-miterlimit="10" stroke-width="10"/><path fill="none" stroke="url(#RQWpCtGRodMK)" paint-order="fill stroke markers" d=" M 1079.5000003576279 1601.2333381017047 L 1079.5000003576279 1170.8666701237357 L 2306.0000014305115 1170.8666701237357 L 2306.0000014305115 740.5000021457672" stroke-linejoin="round" stroke-miterlimit="10" stroke-width="10"/><path fill="none" stroke="url(#TLwFIJRToVMH)" paint-order="fill stroke markers" d=" M 1079.5000003576279 1601.2333381017047 L 1079.5000003576279 1237.3666704813636 L 2306.0000014305115 1237.3666704813636 L 2306.0000014305115 873.500002861023" stroke-linejoin="round" stroke-miterlimit="10" stroke-width="10"/><path fill="none" stroke="url(#DoyiOXvWXXEd)" paint-order="fill stroke markers" d=" M 1079.5000003576279 1601.2333381017047 L 1079.5000003576279 1037.86666940848 L 2306.0000014305115 1037.86666940848 L 2306.0000014305115 474.50000071525574" stroke-linejoin="round" stroke-miterlimit="10" stroke-width="10"/><path fill="none" stroke="url(#ZyuSCdXWGghu)" paint-order="fill stroke markers" d=" M 776.5 1851.7333381017047 L 1052.7500003576279 1851.7333381017047 L 1052.7500003576279 1951.7333381017047 L 1329.0000007152557 1951.7333381017047" stroke-linejoin="round" stroke-miterlimit="10" stroke-width="10"/><path fill="none" stroke="url(#wGicCbXZyfex)" paint-order="fill stroke markers" d=" M 1603.0000007152557 1990.7333381017047 L 1603.0000007152557 2796.5833413203554 L 500 2796.5833413203554 L 500 3602.433344539006" stroke-linejoin="round" stroke-miterlimit="10" stroke-width="10"/><path fill="none" stroke="url(#wVIZdfWuiTwd)" paint-order="fill stroke markers" d=" M 1329.0000007152557 1951.7333381017047 L 1052.7500003576279 1951.7333381017047 L 1052.7500003576279 2579.9333388169603 L 776.5 2579.9333388169603" stroke-linejoin="round" stroke-miterlimit="10" stroke-width="10"/><path fill="none" stroke="url(#JkfgHAXFsAwI)" paint-order="fill stroke markers" d=" M 1603.0000007152557 1990.7333381017047 L 1603.0000007152557 2730.0833409627276 L 500 2730.0833409627276 L 500 3469.4333438237504" stroke-linejoin="round" stroke-miterlimit="10" stroke-width="10"/><path fill="none" stroke="url(#pegqVIVxpeFK)" paint-order="fill stroke markers" d=" M 1603.0000007152557 1990.7333381017047 L 1603.0000007152557 2331.0833388169603 L 500 2331.0833388169603 L 500 2671.433339532216" stroke-linejoin="round" stroke-miterlimit="10" stroke-width="10"/><path fill="none" stroke="url(#PUBJKfghotEZ)" paint-order="fill stroke markers" d=" M 1603.0000007152557 1990.7333381017047 L 1603.0000007152557 2397.583339174588 L 500 2397.583339174588 L 500 2804.4333402474717" stroke-linejoin="round" stroke-miterlimit="10" stroke-width="10"/><path fill="none" stroke="url(#LbalESWDxPGr)" paint-order="fill stroke markers" d=" M 1603.0000007152557 1990.7333381017047 L 1603.0000007152557 2464.083339532216 L 500 2464.083339532216 L 500 2937.4333409627275" stroke-linejoin="round" stroke-miterlimit="10" stroke-width="10"/><path fill="none" stroke="url(#SboWTDLbkAFl)" paint-order="fill stroke markers" d=" M 1603.0000007152557 1990.7333381017047 L 1603.0000007152557 2597.083340247472 L 500 2597.083340247472 L 500 3203.433342393239" stroke-linejoin="round" stroke-miterlimit="10" stroke-width="10"/><path fill="none" stroke="url(#vZwcCLEJxmwn)" paint-order="fill stroke markers" d=" M 1603.0000007152557 1990.7333381017047 L 1603.0000007152557 2530.583339889844 L 500 2530.583339889844 L 500 3070.433341677983" stroke-linejoin="round" stroke-miterlimit="10" stroke-width="10"/><path fill="none" stroke="url(#EccWmIayBXmg)" paint-order="fill stroke markers" d=" M 1603.0000007152557 1990.7333381017047 L 1603.0000007152557 2663.5833406050997 L 500 2663.5833406050997 L 500 3336.4333431084947" stroke-linejoin="round" stroke-miterlimit="10" stroke-width="10"/><path fill="none" stroke="url(#XUaTpHhcoGQa)" paint-order="fill stroke markers" d=" M 3596.2000003576277 1447.5000042915342 L 3596.2000003576277 1227.0000039339063 L 2306.0000014305115 1227.0000039339063 L 2306.0000014305115 1006.5000035762787" stroke-linejoin="round" stroke-miterlimit="10" stroke-width="10"/><path fill="none" stroke="url(#daMTqFkUkxvC)" paint-order="fill stroke markers" d=" M 3596.2000003576277 1447.5000042915342 L 3596.2000003576277 894.500002145767 L 2306.0000014305115 894.500002145767 L 2306.0000014305115 341.5" stroke-linejoin="round" stroke-miterlimit="10" stroke-width="10"/><path fill="none" stroke="url(#cHytMiQdpsqq)" paint-order="fill stroke markers" d=" M 3371.7 1964.000005722046 L 3647.9500003576277 1964.000005722046 L 3647.9500003576277 2126.20000500679 L 3924.2000007152556 2126.20000500679" stroke-linejoin="round" stroke-miterlimit="10" stroke-width="10"/><path fill="none" stroke="url(#ZCBQmuOgATca)" paint-order="fill stroke markers" d=" M 3371.7 1698.0000042915344 L 3647.9500003576277 1698.0000042915344 L 3647.9500003576277 1798.0000042915344 L 3924.2000007152556 1798.0000042915344" stroke-linejoin="round" stroke-miterlimit="10" stroke-width="10"/><path fill="none" stroke="url(#SPVlhMCasIbm)" paint-order="fill stroke markers" d=" M 4198.200000715256 1837.0000042915344 L 4198.200000715256 2274.95000500679 L 3095.2 2274.95000500679 L 3095.2 2712.900005722046" stroke-linejoin="round" stroke-miterlimit="10" stroke-width="10"/><path fill="none" stroke="url(#pFbwSSTiTEPh)" paint-order="fill stroke markers" d=" M 4198.200000715256 1837.0000042915344 L 4198.200000715256 2806.950007867813 L 3095.2 2806.950007867813 L 3095.2 3776.900011444092" stroke-linejoin="round" stroke-miterlimit="10" stroke-width="10"/><path fill="none" stroke="url(#rXHAGHXfwttm)" paint-order="fill stroke markers" d=" M 4198.200000715256 1837.0000042915344 L 4198.200000715256 2540.9500064373015 L 3095.2 2540.9500064373015 L 3095.2 3244.900008583069" stroke-linejoin="round" stroke-miterlimit="10" stroke-width="10"/><path fill="none" stroke="url(#WXpVUJMeqrDu)" paint-order="fill stroke markers" d=" M 4198.200000715256 1837.0000042915344 L 4198.200000715256 2341.450005364418 L 3095.2 2341.450005364418 L 3095.2 2845.9000064373017" stroke-linejoin="round" stroke-miterlimit="10" stroke-width="10"/><path fill="none" stroke="url(#oKqsQJPdAsLP)" paint-order="fill stroke markers" d=" M 4198.200000715256 1837.0000042915344 L 4198.200000715256 2474.4500060796736 L 3095.2 2474.4500060796736 L 3095.2 3111.900007867813" stroke-linejoin="round" stroke-miterlimit="10" stroke-width="10"/><path fill="none" stroke="url(#mVgVMGERaRVT)" paint-order="fill stroke markers" d=" M 4198.200000715256 1837.0000042915344 L 4198.200000715256 2673.950007152557 L 3095.2 2673.950007152557 L 3095.2 3510.9000100135804" stroke-linejoin="round" stroke-miterlimit="10" stroke-width="10"/><path fill="none" stroke="url(#RzzFysQFJzis)" paint-order="fill stroke markers" d=" M 4198.200000715256 1837.0000042915344 L 4198.200000715256 2740.450007510185 L 3095.2 2740.450007510185 L 3095.2 3643.900010728836" stroke-linejoin="round" stroke-miterlimit="10" stroke-width="10"/><path fill="none" stroke="url(#eKTpfFUlnzsU)" paint-order="fill stroke markers" d=" M 4198.200000715256 1837.0000042915344 L 4198.200000715256 2873.450008225441 L 3095.2 2873.450008225441 L 3095.2 3909.9000121593476" stroke-linejoin="round" stroke-miterlimit="10" stroke-width="10"/><path fill="none" stroke="url(#sxmrwqgoPoTK)" paint-order="fill stroke markers" d=" M 4198.200000715256 2165.20000500679 L 4198.200000715256 2771.5500071525576 L 3095.2 2771.5500071525576 L 3095.2 3377.9000092983247" stroke-linejoin="round" stroke-miterlimit="10" stroke-width="10"/><path fill="none" stroke="url(#MmnFTKSfpKCq)" paint-order="fill stroke markers" d=" M 4198.200000715256 2087.20000500679 L 4198.200000715256 1962.1000046491622 L 4198.200000715256 1962.1000046491622 L 4198.200000715256 1837.0000042915344" stroke-linejoin="round" stroke-miterlimit="10" stroke-width="10"/><path fill="rgb(255,247,224)" stroke="rgb(255,193,7)" paint-order="fill stroke markers" d=" M 1303.0000007152557 261 L 1569.0000007152557 261 L 1569.0000007152557 261 A 8 8 0 0 1 1577.0000007152557 269 L 1577.0000007152557 331 L 1577.0000007152557 331 A 8 8 0 0 1 1569.0000007152557 339 L 1037.0000007152557 339 L 1037.0000007152557 339 A 8 8 0 0 1 1029.0000007152557 331 L 1029.0000007152557 269 L 1029.0000007152557 269 A 8 8 0 0 1 1037.0000007152557 261 L 1303.0000007152557 261 Z" fill-opacity="1" stroke-opacity="1" stroke-miterlimit="10" stroke-width="5"/><text fill="rgb(0,0,0)" stroke="none" font-family="Avenir, Helvetica, Arial, sans-serif" font-size="32px" font-style="normal" font-weight="bold" text-decoration="normal" x="1303.0000007152557" y="316" text-anchor="middle" dominant-baseline="text-after-edge" fill-opacity="1">oauth_client_id</text><path fill="rgb(255,247,224)" stroke="rgb(255,193,7)" paint-order="fill stroke markers" d=" M 1303.0000007152557 394.00000071525574 L 1569.0000007152557 394.00000071525574 L 1569.0000007152557 394.00000071525574 A 8 8 0 0 1 1577.0000007152557 402.00000071525574 L 1577.0000007152557 464.00000071525574 L 1577.0000007152557 464.00000071525574 A 8 8 0 0 1 1569.0000007152557 472.00000071525574 L 1037.0000007152557 472.00000071525574 L 1037.0000007152557 472.00000071525574 A 8 8 0 0 1 1029.0000007152557 464.00000071525574 L 1029.0000007152557 402.00000071525574 L 1029.0000007152557 402.00000071525574 A 8 8 0 0 1 1037.0000007152557 394.00000071525574 L 1303.0000007152557 394.00000071525574 Z" fill-opacity="1" stroke-opacity="1" stroke-miterlimit="10" stroke-width="5"/><text fill="rgb(0,0,0)" stroke="none" font-family="Avenir, Helvetica, Arial, sans-serif" font-size="32px" font-style="normal" font-weight="bold" text-decoration="normal" x="1303.0000007152557" y="449.00000071525574" text-anchor="middle" dominant-baseline="text-after-edge" fill-opacity="1">oauth_client_oauth_token_id</text><path fill="rgb(225,240,255)" stroke="rgb(29,122,218)" paint-order="fill stroke markers" d=" M 300 261 L 566 261 L 566 261 A 8 8 0 0 1 574 269 L 574 331 L 574 331 A 8 8 0 0 1 566 339 L 34 339 L 34 339 A 8 8 0 0 1 26 331 L 26 269 L 26 269 A 8 8 0 0 1 34 261 L 300 261 Z" fill-opacity="1" stroke-opacity="1" stroke-miterlimit="10" stroke-width="5"/><text fill="rgb(0,0,0)" stroke="none" font-family="Avenir, Helvetica, Arial, sans-serif" font-size="32px" font-style="normal" font-weight="bold" text-decoration="normal" x="300" y="316" text-anchor="middle" dominant-baseline="text-after-edge" fill-opacity="1">token</text><path fill="rgb(255,247,224)" stroke="rgb(255,193,7)" paint-order="fill stroke markers" d=" M 500 1812.7333381017047 L 766 1812.7333381017047 L 766 1812.7333381017047 A 8 8 0 0 1 774 1820.7333381017047 L 774 1882.7333381017047 L 774 1882.7333381017047 A 8 8 0 0 1 766 1890.7333381017047 L 234 1890.7333381017047 L 234 1890.7333381017047 A 8 8 0 0 1 226 1882.7333381017047 L 226 1820.7333381017047 L 226 1820.7333381017047 A 8 8 0 0 1 234 1812.7333381017047 L 500 1812.7333381017047 Z" fill-opacity="1" stroke-opacity="1" stroke-miterlimit="10" stroke-width="5"/><text fill="rgb(0,0,0)" stroke="none" font-family="Avenir, Helvetica, Arial, sans-serif" font-size="32px" font-style="normal" font-weight="bold" text-decoration="normal" x="500" y="1867.7333381017047" text-anchor="middle" dominant-baseline="text-after-edge" fill-opacity="1">oauth_token_id</text><path fill="rgb(225,240,255)" stroke="rgb(29,122,218)" paint-order="fill stroke markers" d=" M 500 2540.9333388169603 L 766 2540.9333388169603 L 766 2540.9333388169603 A 8 8 0 0 1 774 2548.9333388169603 L 774 2610.9333388169603 L 774 2610.9333388169603 A 8 8 0 0 1 766 2618.9333388169603 L 234 2618.9333388169603 L 234 2618.9333388169603 A 8 8 0 0 1 226 2610.9333388169603 L 226 2548.9333388169603 L 226 2548.9333388169603 A 8 8 0 0 1 234 2540.9333388169603 L 500 2540.9333388169603 Z" fill-opacity="1" stroke-opacity="1" stroke-miterlimit="10" stroke-width="5"/><text fill="rgb(0,0,0)" stroke="none" font-family="Avenir, Helvetica, Arial, sans-serif" font-size="32px" font-style="normal" font-weight="bold" text-decoration="normal" x="500" y="2595.9333388169603" text-anchor="middle" dominant-baseline="text-after-edge" fill-opacity="1">organization</text><path fill="rgb(225,240,255)" stroke="rgb(29,122,218)" paint-order="fill stroke markers" d=" M 500 2673.933339532216 L 766 2673.933339532216 L 766 2673.933339532216 A 8 8 0 0 1 774 2681.933339532216 L 774 2743.933339532216 L 774 2743.933339532216 A 8 8 0 0 1 766 2751.933339532216 L 234 2751.933339532216 L 234 2751.933339532216 A 8 8 0 0 1 226 2743.933339532216 L 226 2681.933339532216 L 226 2681.933339532216 A 8 8 0 0 1 234 2673.933339532216 L 500 2673.933339532216 Z" fill-opacity="1" stroke-opacity="1" stroke-miterlimit="10" stroke-width="5"/><text fill="rgb(0,0,0)" stroke="none" font-family="Avenir, Helvetica, Arial, sans-serif" font-size="32px" font-style="normal" font-weight="bold" text-decoration="normal" x="500" y="2728.933339532216" text-anchor="middle" dominant-baseline="text-after-edge" fill-opacity="1">service_provider</text><path fill="rgb(225,240,255)" stroke="rgb(29,122,218)" paint-order="fill stroke markers" d=" M 500 2806.9333402474717 L 766 2806.9333402474717 L 766 2806.9333402474717 A 8 8 0 0 1 774 2814.9333402474717 L 774 2876.9333402474717 L 774 2876.9333402474717 A 8 8 0 0 1 766 2884.9333402474717 L 234 2884.9333402474717 L 234 2884.9333402474717 A 8 8 0 0 1 226 2876.9333402474717 L 226 2814.9333402474717 L 226 2814.9333402474717 A 8 8 0 0 1 234 2806.9333402474717 L 500 2806.9333402474717 Z" fill-opacity="1" stroke-opacity="1" stroke-miterlimit="10" stroke-width="5"/><text fill="rgb(0,0,0)" stroke="none" font-family="Avenir, Helvetica, Arial, sans-serif" font-size="32px" font-style="normal" font-weight="bold" text-decoration="normal" x="500" y="2861.9333402474717" text-anchor="middle" dominant-baseline="text-after-edge" fill-opacity="1">api_url</text><path fill="rgb(225,240,255)" stroke="rgb(29,122,218)" paint-order="fill stroke markers" d=" M 500 2939.9333409627275 L 766 2939.9333409627275 L 766 2939.9333409627275 A 8 8 0 0 1 774 2947.9333409627275 L 774 3009.9333409627275 L 774 3009.9333409627275 A 8 8 0 0 1 766 3017.9333409627275 L 234 3017.9333409627275 L 234 3017.9333409627275 A 8 8 0 0 1 226 3009.9333409627275 L 226 2947.9333409627275 L 226 2947.9333409627275 A 8 8 0 0 1 234 2939.9333409627275 L 500 2939.9333409627275 Z" fill-opacity="1" stroke-opacity="1" stroke-miterlimit="10" stroke-width="5"/><text fill="rgb(0,0,0)" stroke="none" font-family="Avenir, Helvetica, Arial, sans-serif" font-size="32px" font-style="normal" font-weight="bold" text-decoration="normal" x="500" y="2994.9333409627275" text-anchor="middle" dominant-baseline="text-after-edge" fill-opacity="1">http_url</text><path fill="rgb(225,240,255)" stroke="rgb(29,122,218)" paint-order="fill stroke markers" d=" M 500 3072.933341677983 L 766 3072.933341677983 L 766 3072.933341677983 A 8 8 0 0 1 774 3080.933341677983 L 774 3142.933341677983 L 774 3142.933341677983 A 8 8 0 0 1 766 3150.933341677983 L 234 3150.933341677983 L 234 3150.933341677983 A 8 8 0 0 1 226 3142.933341677983 L 226 3080.933341677983 L 226 3080.933341677983 A 8 8 0 0 1 234 3072.933341677983 L 500 3072.933341677983 Z" fill-opacity="1" stroke-opacity="1" stroke-miterlimit="10" stroke-width="5"/><text fill="rgb(0,0,0)" stroke="none" font-family="Avenir, Helvetica, Arial, sans-serif" font-size="32px" font-style="normal" font-weight="bold" text-decoration="normal" x="500" y="3127.933341677983" text-anchor="middle" dominant-baseline="text-after-edge" fill-opacity="1">private_key</text><path fill="rgb(225,240,255)" stroke="rgb(29,122,218)" paint-order="fill stroke markers" d=" M 500 3205.933342393239 L 766 3205.933342393239 L 766 3205.933342393239 A 8 8 0 0 1 774 3213.933342393239 L 774 3275.933342393239 L 774 3275.933342393239 A 8 8 0 0 1 766 3283.933342393239 L 234 3283.933342393239 L 234 3283.933342393239 A 8 8 0 0 1 226 3275.933342393239 L 226 3213.933342393239 L 226 3213.933342393239 A 8 8 0 0 1 234 3205.933342393239 L 500 3205.933342393239 Z" fill-opacity="1" stroke-opacity="1" stroke-miterlimit="10" stroke-width="5"/><text fill="rgb(0,0,0)" stroke="none" font-family="Avenir, Helvetica, Arial, sans-serif" font-size="32px" font-style="normal" font-weight="bold" text-decoration="normal" x="500" y="3260.933342393239" text-anchor="middle" dominant-baseline="text-after-edge" fill-opacity="1">key</text><path fill="rgb(225,240,255)" stroke="rgb(29,122,218)" paint-order="fill stroke markers" d=" M 500 3338.9333431084947 L 766 3338.9333431084947 L 766 3338.9333431084947 A 8 8 0 0 1 774 3346.9333431084947 L 774 3408.9333431084947 L 774 3408.9333431084947 A 8 8 0 0 1 766 3416.9333431084947 L 234 3416.9333431084947 L 234 3416.9333431084947 A 8 8 0 0 1 226 3408.9333431084947 L 226 3346.9333431084947 L 226 3346.9333431084947 A 8 8 0 0 1 234 3338.9333431084947 L 500 3338.9333431084947 Z" fill-opacity="1" stroke-opacity="1" stroke-miterlimit="10" stroke-width="5"/><text fill="rgb(0,0,0)" stroke="none" font-family="Avenir, Helvetica, Arial, sans-serif" font-size="32px" font-style="normal" font-weight="bold" text-decoration="normal" x="500" y="3393.9333431084947" text-anchor="middle" dominant-baseline="text-after-edge" fill-opacity="1">rsa_public_key</text><path fill="rgb(225,240,255)" stroke="rgb(29,122,218)" paint-order="fill stroke markers" d=" M 500 3471.9333438237504 L 766 3471.9333438237504 L 766 3471.9333438237504 A 8 8 0 0 1 774 3479.9333438237504 L 774 3541.9333438237504 L 774 3541.9333438237504 A 8 8 0 0 1 766 3549.9333438237504 L 234 3549.9333438237504 L 234 3549.9333438237504 A 8 8 0 0 1 226 3541.9333438237504 L 226 3479.9333438237504 L 226 3479.9333438237504 A 8 8 0 0 1 234 3471.9333438237504 L 500 3471.9333438237504 Z" fill-opacity="1" stroke-opacity="1" stroke-miterlimit="10" stroke-width="5"/><text fill="rgb(0,0,0)" stroke="none" font-family="Avenir, Helvetica, Arial, sans-serif" font-size="32px" font-style="normal" font-weight="bold" text-decoration="normal" x="500" y="3526.9333438237504" text-anchor="middle" dominant-baseline="text-after-edge" fill-opacity="1">secret</text><path fill="rgb(225,240,255)" stroke="rgb(29,122,218)" paint-order="fill stroke markers" d=" M 500 3604.933344539006 L 766 3604.933344539006 L 766 3604.933344539006 A 8 8 0 0 1 774 3612.933344539006 L 774 3674.933344539006 L 774 3674.933344539006 A 8 8 0 0 1 766 3682.933344539006 L 234 3682.933344539006 L 234 3682.933344539006 A 8 8 0 0 1 226 3674.933344539006 L 226 3612.933344539006 L 226 3612.933344539006 A 8 8 0 0 1 234 3604.933344539006 L 500 3604.933344539006 Z" fill-opacity="1" stroke-opacity="1" stroke-miterlimit="10" stroke-width="5"/><text fill="rgb(0,0,0)" stroke="none" font-family="Avenir, Helvetica, Arial, sans-serif" font-size="32px" font-style="normal" font-weight="bold" text-decoration="normal" x="500" y="3659.933344539006" text-anchor="middle" dominant-baseline="text-after-edge" fill-opacity="1">oauth_token</text><path fill="rgb(40,167,69)" stroke="none" paint-order="stroke fill markers" d=" M 1603.0000007152557 1912.7333381017047 L 1869.0000007152557 1912.7333381017047 L 1869.0000007152557 1912.7333381017047 A 8 8 0 0 1 1877.0000007152557 1920.7333381017047 L 1877.0000007152557 1982.7333381017047 L 1877.0000007152557 1982.7333381017047 A 8 8 0 0 1 1869.0000007152557 1990.7333381017047 L 1337.0000007152557 1990.7333381017047 L 1337.0000007152557 1990.7333381017047 A 8 8 0 0 1 1329.0000007152557 1982.7333381017047 L 1329.0000007152557 1920.7333381017047 L 1329.0000007152557 1920.7333381017047 A 8 8 0 0 1 1337.0000007152557 1912.7333381017047 L 1603.0000007152557 1912.7333381017047 Z" fill-opacity="1"/><text fill="rgb(255,255,255)" stroke="none" font-family="Avenir, Helvetica, Arial, sans-serif" font-size="32px" font-style="normal" font-weight="bold" text-decoration="normal" x="1603.0000007152557" y="1967.7333381017047" text-anchor="middle" dominant-baseline="text-after-edge" fill-opacity="1">default</text><path fill="rgb(255,247,224)" stroke="rgb(255,193,7)" paint-order="fill stroke markers" d=" M 3095.2 1659.0000042915344 L 3361.2 1659.0000042915344 L 3361.2 1659.0000042915344 A 8 8 0 0 1 3369.2 1667.0000042915344 L 3369.2 1729.0000042915344 L 3369.2 1729.0000042915344 A 8 8 0 0 1 3361.2 1737.0000042915344 L 2829.2 1737.0000042915344 L 2829.2 1737.0000042915344 A 8 8 0 0 1 2821.2 1729.0000042915344 L 2821.2 1667.0000042915344 L 2821.2 1667.0000042915344 A 8 8 0 0 1 2829.2 1659.0000042915344 L 3095.2 1659.0000042915344 Z" fill-opacity="1" stroke-opacity="1" stroke-miterlimit="10" stroke-width="5"/><text fill="rgb(0,0,0)" stroke="none" font-family="Avenir, Helvetica, Arial, sans-serif" font-size="32px" font-style="normal" font-weight="bold" text-decoration="normal" x="3095.2" y="1714.0000042915344" text-anchor="middle" dominant-baseline="text-after-edge" fill-opacity="1">name</text><path fill="rgb(255,247,224)" stroke="rgb(255,193,7)" paint-order="fill stroke markers" d=" M 3095.2 1792.0000050067902 L 3361.2 1792.0000050067902 L 3361.2 1792.0000050067902 A 8 8 0 0 1 3369.2 1800.0000050067902 L 3369.2 1862.0000050067902 L 3369.2 1862.0000050067902 A 8 8 0 0 1 3361.2 1870.0000050067902 L 2829.2 1870.0000050067902 L 2829.2 1870.0000050067902 A 8 8 0 0 1 2821.2 1862.0000050067902 L 2821.2 1800.0000050067902 L 2821.2 1800.0000050067902 A 8 8 0 0 1 2829.2 1792.0000050067902 L 3095.2 1792.0000050067902 Z" fill-opacity="1" stroke-opacity="1" stroke-miterlimit="10" stroke-width="5"/><text fill="rgb(0,0,0)" stroke="none" font-family="Avenir, Helvetica, Arial, sans-serif" font-size="32px" font-style="normal" font-weight="bold" text-decoration="normal" x="3095.2" y="1847.0000050067902" text-anchor="middle" dominant-baseline="text-after-edge" fill-opacity="1">id</text><path fill="rgb(255,247,224)" stroke="rgb(255,193,7)" paint-order="fill stroke markers" d=" M 3095.2 1925.000005722046 L 3361.2 1925.000005722046 L 3361.2 1925.000005722046 A 8 8 0 0 1 3369.2 1933.000005722046 L 3369.2 1995.000005722046 L 3369.2 1995.000005722046 A 8 8 0 0 1 3361.2 2003.000005722046 L 2829.2 2003.000005722046 L 2829.2 2003.000005722046 A 8 8 0 0 1 2821.2 1995.000005722046 L 2821.2 1933.000005722046 L 2821.2 1933.000005722046 A 8 8 0 0 1 2829.2 1925.000005722046 L 3095.2 1925.000005722046 Z" fill-opacity="1" stroke-opacity="1" stroke-miterlimit="10" stroke-width="5"/><text fill="rgb(0,0,0)" stroke="none" font-family="Avenir, Helvetica, Arial, sans-serif" font-size="32px" font-style="normal" font-weight="bold" text-decoration="normal" x="3095.2" y="1980.000005722046" text-anchor="middle" dominant-baseline="text-after-edge" fill-opacity="1">token</text><path fill="rgb(225,240,255)" stroke="rgb(29,122,218)" paint-order="fill stroke markers" d=" M 3095.2 2715.400005722046 L 3361.2 2715.400005722046 L 3361.2 2715.400005722046 A 8 8 0 0 1 3369.2 2723.400005722046 L 3369.2 2785.400005722046 L 3369.2 2785.400005722046 A 8 8 0 0 1 3361.2 2793.400005722046 L 2829.2 2793.400005722046 L 2829.2 2793.400005722046 A 8 8 0 0 1 2821.2 2785.400005722046 L 2821.2 2723.400005722046 L 2821.2 2723.400005722046 A 8 8 0 0 1 2829.2 2715.400005722046 L 3095.2 2715.400005722046 Z" fill-opacity="1" stroke-opacity="1" stroke-miterlimit="10" stroke-width="5"/><text fill="rgb(0,0,0)" stroke="none" font-family="Avenir, Helvetica, Arial, sans-serif" font-size="32px" font-style="normal" font-weight="bold" text-decoration="normal" x="3095.2" y="2770.400005722046" text-anchor="middle" dominant-baseline="text-after-edge" fill-opacity="1">session_remember_minutes</text><path fill="rgb(225,240,255)" stroke="rgb(29,122,218)" paint-order="fill stroke markers" d=" M 3095.2 2848.4000064373017 L 3361.2 2848.4000064373017 L 3361.2 2848.4000064373017 A 8 8 0 0 1 3369.2 2856.4000064373017 L 3369.2 2918.4000064373017 L 3369.2 2918.4000064373017 A 8 8 0 0 1 3361.2 2926.4000064373017 L 2829.2 2926.4000064373017 L 2829.2 2926.4000064373017 A 8 8 0 0 1 2821.2 2918.4000064373017 L 2821.2 2856.4000064373017 L 2821.2 2856.4000064373017 A 8 8 0 0 1 2829.2 2848.4000064373017 L 3095.2 2848.4000064373017 Z" fill-opacity="1" stroke-opacity="1" stroke-miterlimit="10" stroke-width="5"/><text fill="rgb(0,0,0)" stroke="none" font-family="Avenir, Helvetica, Arial, sans-serif" font-size="32px" font-style="normal" font-weight="bold" text-decoration="normal" x="3095.2" y="2903.4000064373017" text-anchor="middle" dominant-baseline="text-after-edge" fill-opacity="1">cost_estimation_enabled</text><path fill="rgb(225,240,255)" stroke="rgb(29,122,218)" paint-order="fill stroke markers" d=" M 3095.2 2981.4000071525575 L 3361.2 2981.4000071525575 L 3361.2 2981.4000071525575 A 8 8 0 0 1 3369.2 2989.4000071525575 L 3369.2 3051.4000071525575 L 3369.2 3051.4000071525575 A 8 8 0 0 1 3361.2 3059.4000071525575 L 2829.2 3059.4000071525575 L 2829.2 3059.4000071525575 A 8 8 0 0 1 2821.2 3051.4000071525575 L 2821.2 2989.4000071525575 L 2821.2 2989.4000071525575 A 8 8 0 0 1 2829.2 2981.4000071525575 L 3095.2 2981.4000071525575 Z" fill-opacity="1" stroke-opacity="1" stroke-miterlimit="10" stroke-width="5"/><text fill="rgb(0,0,0)" stroke="none" font-family="Avenir, Helvetica, Arial, sans-serif" font-size="32px" font-style="normal" font-weight="bold" text-decoration="normal" x="3095.2" y="3036.4000071525575" text-anchor="middle" dominant-baseline="text-after-edge" fill-opacity="1">members</text><path fill="rgb(225,240,255)" stroke="rgb(29,122,218)" paint-order="fill stroke markers" d=" M 3095.2 3114.400007867813 L 3361.2 3114.400007867813 L 3361.2 3114.400007867813 A 8 8 0 0 1 3369.2 3122.400007867813 L 3369.2 3184.400007867813 L 3369.2 3184.400007867813 A 8 8 0 0 1 3361.2 3192.400007867813 L 2829.2 3192.400007867813 L 2829.2 3192.400007867813 A 8 8 0 0 1 2821.2 3184.400007867813 L 2821.2 3122.400007867813 L 2821.2 3122.400007867813 A 8 8 0 0 1 2829.2 3114.400007867813 L 3095.2 3114.400007867813 Z" fill-opacity="1" stroke-opacity="1" stroke-miterlimit="10" stroke-width="5"/><text fill="rgb(0,0,0)" stroke="none" font-family="Avenir, Helvetica, Arial, sans-serif" font-size="32px" font-style="normal" font-weight="bold" text-decoration="normal" x="3095.2" y="3169.400007867813" text-anchor="middle" dominant-baseline="text-after-edge" fill-opacity="1">email</text><path fill="rgb(225,240,255)" stroke="rgb(29,122,218)" paint-order="fill stroke markers" d=" M 3095.2 3247.400008583069 L 3361.2 3247.400008583069 L 3361.2 3247.400008583069 A 8 8 0 0 1 3369.2 3255.400008583069 L 3369.2 3317.400008583069 L 3369.2 3317.400008583069 A 8 8 0 0 1 3361.2 3325.400008583069 L 2829.2 3325.400008583069 L 2829.2 3325.400008583069 A 8 8 0 0 1 2821.2 3317.400008583069 L 2821.2 3255.400008583069 L 2821.2 3255.400008583069 A 8 8 0 0 1 2829.2 3247.400008583069 L 3095.2 3247.400008583069 Z" fill-opacity="1" stroke-opacity="1" stroke-miterlimit="10" stroke-width="5"/><text fill="rgb(0,0,0)" stroke="none" font-family="Avenir, Helvetica, Arial, sans-serif" font-size="32px" font-style="normal" font-weight="bold" text-decoration="normal" x="3095.2" y="3302.400008583069" text-anchor="middle" dominant-baseline="text-after-edge" fill-opacity="1">collaborator_auth_policy</text><path fill="rgb(225,240,255)" stroke="rgb(29,122,218)" paint-order="fill stroke markers" d=" M 3095.2 3912.4000121593476 L 3361.2 3912.4000121593476 L 3361.2 3912.4000121593476 A 8 8 0 0 1 3369.2 3920.4000121593476 L 3369.2 3982.4000121593476 L 3369.2 3982.4000121593476 A 8 8 0 0 1 3361.2 3990.4000121593476 L 2829.2 3990.4000121593476 L 2829.2 3990.4000121593476 A 8 8 0 0 1 2821.2 3982.4000121593476 L 2821.2 3920.4000121593476 L 2821.2 3920.4000121593476 A 8 8 0 0 1 2829.2 3912.4000121593476 L 3095.2 3912.4000121593476 Z" fill-opacity="1" stroke-opacity="1" stroke-miterlimit="10" stroke-width="5"/><text fill="rgb(0,0,0)" stroke="none" font-family="Avenir, Helvetica, Arial, sans-serif" font-size="32px" font-style="normal" font-weight="bold" text-decoration="normal" x="3095.2" y="3967.4000121593476" text-anchor="middle" dominant-baseline="text-after-edge" fill-opacity="1">send_passing_statuses_for_untriggered_speculative_plans</text><path fill="rgb(225,240,255)" stroke="rgb(29,122,218)" paint-order="fill stroke markers" d=" M 3095.2 3380.4000092983247 L 3361.2 3380.4000092983247 L 3361.2 3380.4000092983247 A 8 8 0 0 1 3369.2 3388.4000092983247 L 3369.2 3450.4000092983247 L 3369.2 3450.4000092983247 A 8 8 0 0 1 3361.2 3458.4000092983247 L 2829.2 3458.4000092983247 L 2829.2 3458.4000092983247 A 8 8 0 0 1 2821.2 3450.4000092983247 L 2821.2 3388.4000092983247 L 2821.2 3388.4000092983247 A 8 8 0 0 1 2829.2 3380.4000092983247 L 3095.2 3380.4000092983247 Z" fill-opacity="1" stroke-opacity="1" stroke-miterlimit="10" stroke-width="5"/><text fill="rgb(0,0,0)" stroke="none" font-family="Avenir, Helvetica, Arial, sans-serif" font-size="32px" font-style="normal" font-weight="bold" text-decoration="normal" x="3095.2" y="3435.4000092983247" text-anchor="middle" dominant-baseline="text-after-edge" fill-opacity="1">force_regenerate</text><path fill="rgb(225,240,255)" stroke="rgb(29,122,218)" paint-order="fill stroke markers" d=" M 3095.2 3513.4000100135804 L 3361.2 3513.4000100135804 L 3361.2 3513.4000100135804 A 8 8 0 0 1 3369.2 3521.4000100135804 L 3369.2 3583.4000100135804 L 3369.2 3583.4000100135804 A 8 8 0 0 1 3361.2 3591.4000100135804 L 2829.2 3591.4000100135804 L 2829.2 3591.4000100135804 A 8 8 0 0 1 2821.2 3583.4000100135804 L 2821.2 3521.4000100135804 L 2821.2 3521.4000100135804 A 8 8 0 0 1 2829.2 3513.4000100135804 L 3095.2 3513.4000100135804 Z" fill-opacity="1" stroke-opacity="1" stroke-miterlimit="10" stroke-width="5"/><text fill="rgb(0,0,0)" stroke="none" font-family="Avenir, Helvetica, Arial, sans-serif" font-size="32px" font-style="normal" font-weight="bold" text-decoration="normal" x="3095.2" y="3568.4000100135804" text-anchor="middle" dominant-baseline="text-after-edge" fill-opacity="1">name</text><path fill="rgb(225,240,255)" stroke="rgb(29,122,218)" paint-order="fill stroke markers" d=" M 3095.2 3646.400010728836 L 3361.2 3646.400010728836 L 3361.2 3646.400010728836 A 8 8 0 0 1 3369.2 3654.400010728836 L 3369.2 3716.400010728836 L 3369.2 3716.400010728836 A 8 8 0 0 1 3361.2 3724.400010728836 L 2829.2 3724.400010728836 L 2829.2 3724.400010728836 A 8 8 0 0 1 2821.2 3716.400010728836 L 2821.2 3654.400010728836 L 2821.2 3654.400010728836 A 8 8 0 0 1 2829.2 3646.400010728836 L 3095.2 3646.400010728836 Z" fill-opacity="1" stroke-opacity="1" stroke-miterlimit="10" stroke-width="5"/><text fill="rgb(0,0,0)" stroke="none" font-family="Avenir, Helvetica, Arial, sans-serif" font-size="32px" font-style="normal" font-weight="bold" text-decoration="normal" x="3095.2" y="3701.400010728836" text-anchor="middle" dominant-baseline="text-after-edge" fill-opacity="1">owners_team_saml_role_id</text><path fill="rgb(225,240,255)" stroke="rgb(29,122,218)" paint-order="fill stroke markers" d=" M 3095.2 3779.400011444092 L 3361.2 3779.400011444092 L 3361.2 3779.400011444092 A 8 8 0 0 1 3369.2 3787.400011444092 L 3369.2 3849.400011444092 L 3369.2 3849.400011444092 A 8 8 0 0 1 3361.2 3857.400011444092 L 2829.2 3857.400011444092 L 2829.2 3857.400011444092 A 8 8 0 0 1 2821.2 3849.400011444092 L 2821.2 3787.400011444092 L 2821.2 3787.400011444092 A 8 8 0 0 1 2829.2 3779.400011444092 L 3095.2 3779.400011444092 Z" fill-opacity="1" stroke-opacity="1" stroke-miterlimit="10" stroke-width="5"/><text fill="rgb(0,0,0)" stroke="none" font-family="Avenir, Helvetica, Arial, sans-serif" font-size="32px" font-style="normal" font-weight="bold" text-decoration="normal" x="3095.2" y="3834.400011444092" text-anchor="middle" dominant-baseline="text-after-edge" fill-opacity="1">session_timeout_minutes</text><path fill="rgb(40,167,69)" stroke="none" paint-order="stroke fill markers" d=" M 4198.200000715256 1759.0000042915344 L 4464.200000715256 1759.0000042915344 L 4464.200000715256 1759.0000042915344 A 8 8 0 0 1 4472.200000715256 1767.0000042915344 L 4472.200000715256 1829.0000042915344 L 4472.200000715256 1829.0000042915344 A 8 8 0 0 1 4464.200000715256 1837.0000042915344 L 3932.2000007152556 1837.0000042915344 L 3932.2000007152556 1837.0000042915344 A 8 8 0 0 1 3924.2000007152556 1829.0000042915344 L 3924.2000007152556 1767.0000042915344 L 3924.2000007152556 1767.0000042915344 A 8 8 0 0 1 3932.2000007152556 1759.0000042915344 L 4198.200000715256 1759.0000042915344 Z" fill-opacity="1"/><text fill="rgb(255,255,255)" stroke="none" font-family="Avenir, Helvetica, Arial, sans-serif" font-size="32px" font-style="normal" font-weight="bold" text-decoration="normal" x="4198.200000715256" y="1814.0000042915344" text-anchor="middle" dominant-baseline="text-after-edge" fill-opacity="1">default</text><path fill="rgb(40,167,69)" stroke="none" paint-order="stroke fill markers" d=" M 4198.200000715256 2087.20000500679 L 4464.200000715256 2087.20000500679 L 4464.200000715256 2087.20000500679 A 8 8 0 0 1 4472.200000715256 2095.20000500679 L 4472.200000715256 2157.20000500679 L 4472.200000715256 2157.20000500679 A 8 8 0 0 1 4464.200000715256 2165.20000500679 L 3932.2000007152556 2165.20000500679 L 3932.2000007152556 2165.20000500679 A 8 8 0 0 1 3924.2000007152556 2157.20000500679 L 3924.2000007152556 2095.20000500679 L 3924.2000007152556 2095.20000500679 A 8 8 0 0 1 3932.2000007152556 2087.20000500679 L 4198.200000715256 2087.20000500679 Z" fill-opacity="1"/><text fill="rgb(255,255,255)" stroke="none" font-family="Avenir, Helvetica, Arial, sans-serif" font-size="32px" font-style="normal" font-weight="bold" text-decoration="normal" x="4198.200000715256" y="2142.20000500679" text-anchor="middle" dominant-baseline="text-after-edge" fill-opacity="1">default</text><path fill="rgb(0,0,0)" stroke="rgb(0,0,0)" paint-order="fill stroke markers" d=" M 2306.0000014305115 261 L 2572.0000014305115 261 L 2572.0000014305115 261 A 8 8 0 0 1 2580.0000014305115 269 L 2580.0000014305115 331 L 2580.0000014305115 331 A 8 8 0 0 1 2572.0000014305115 339 L 2040.0000014305115 339 L 2040.0000014305115 339 A 8 8 0 0 1 2032.0000014305115 331 L 2032.0000014305115 269 L 2032.0000014305115 269 A 8 8 0 0 1 2040.0000014305115 261 L 2306.0000014305115 261 Z" fill-opacity="1" stroke-opacity="1" stroke-miterlimit="10" stroke-width="5"/><text fill="rgb(255,255,255)" stroke="none" font-family="Avenir, Helvetica, Arial, sans-serif" font-size="32px" font-style="normal" font-weight="bold" text-decoration="normal" x="2306.0000014305115" y="316" text-anchor="middle" dominant-baseline="text-after-edge" fill-opacity="1">organization_name</text><path fill="rgb(0,0,0)" stroke="rgb(0,0,0)" paint-order="fill stroke markers" d=" M 2306.0000014305115 394.00000071525574 L 2572.0000014305115 394.00000071525574 L 2572.0000014305115 394.00000071525574 A 8 8 0 0 1 2580.0000014305115 402.00000071525574 L 2580.0000014305115 464.00000071525574 L 2580.0000014305115 464.00000071525574 A 8 8 0 0 1 2572.0000014305115 472.00000071525574 L 2040.0000014305115 472.00000071525574 L 2040.0000014305115 472.00000071525574 A 8 8 0 0 1 2032.0000014305115 464.00000071525574 L 2032.0000014305115 402.00000071525574 L 2032.0000014305115 402.00000071525574 A 8 8 0 0 1 2040.0000014305115 394.00000071525574 L 2306.0000014305115 394.00000071525574 Z" fill-opacity="1" stroke-opacity="1" stroke-miterlimit="10" stroke-width="5"/><text fill="rgb(255,255,255)" stroke="none" font-family="Avenir, Helvetica, Arial, sans-serif" font-size="32px" font-style="normal" font-weight="bold" text-decoration="normal" x="2306.0000014305115" y="449.00000071525574" text-anchor="middle" dominant-baseline="text-after-edge" fill-opacity="1">oauth_client_service_provider</text><path fill="rgb(0,0,0)" stroke="rgb(0,0,0)" paint-order="fill stroke markers" d=" M 2306.0000014305115 527.0000014305115 L 2572.0000014305115 527.0000014305115 L 2572.0000014305115 527.0000014305115 A 8 8 0 0 1 2580.0000014305115 535.0000014305115 L 2580.0000014305115 597.0000014305115 L 2580.0000014305115 597.0000014305115 A 8 8 0 0 1 2572.0000014305115 605.0000014305115 L 2040.0000014305115 605.0000014305115 L 2040.0000014305115 605.0000014305115 A 8 8 0 0 1 2032.0000014305115 597.0000014305115 L 2032.0000014305115 535.0000014305115 L 2032.0000014305115 535.0000014305115 A 8 8 0 0 1 2040.0000014305115 527.0000014305115 L 2306.0000014305115 527.0000014305115 Z" fill-opacity="1" stroke-opacity="1" stroke-miterlimit="10" stroke-width="5"/><text fill="rgb(255,255,255)" stroke="none" font-family="Avenir, Helvetica, Arial, sans-serif" font-size="32px" font-style="normal" font-weight="bold" text-decoration="normal" x="2306.0000014305115" y="582.0000014305115" text-anchor="middle" dominant-baseline="text-after-edge" fill-opacity="1">oauth_client_api_url</text><path fill="rgb(0,0,0)" stroke="rgb(0,0,0)" paint-order="fill stroke markers" d=" M 2306.0000014305115 660.0000021457672 L 2572.0000014305115 660.0000021457672 L 2572.0000014305115 660.0000021457672 A 8 8 0 0 1 2580.0000014305115 668.0000021457672 L 2580.0000014305115 730.0000021457672 L 2580.0000014305115 730.0000021457672 A 8 8 0 0 1 2572.0000014305115 738.0000021457672 L 2040.0000014305115 738.0000021457672 L 2040.0000014305115 738.0000021457672 A 8 8 0 0 1 2032.0000014305115 730.0000021457672 L 2032.0000014305115 668.0000021457672 L 2032.0000014305115 668.0000021457672 A 8 8 0 0 1 2040.0000014305115 660.0000021457672 L 2306.0000014305115 660.0000021457672 Z" fill-opacity="1" stroke-opacity="1" stroke-miterlimit="10" stroke-width="5"/><text fill="rgb(255,255,255)" stroke="none" font-family="Avenir, Helvetica, Arial, sans-serif" font-size="32px" font-style="normal" font-weight="bold" text-decoration="normal" x="2306.0000014305115" y="715.0000021457672" text-anchor="middle" dominant-baseline="text-after-edge" fill-opacity="1">oauth_client_http_url</text><path fill="rgb(0,0,0)" stroke="rgb(0,0,0)" paint-order="fill stroke markers" d=" M 2306.0000014305115 793.000002861023 L 2572.0000014305115 793.000002861023 L 2572.0000014305115 793.000002861023 A 8 8 0 0 1 2580.0000014305115 801.000002861023 L 2580.0000014305115 863.000002861023 L 2580.0000014305115 863.000002861023 A 8 8 0 0 1 2572.0000014305115 871.000002861023 L 2040.0000014305115 871.000002861023 L 2040.0000014305115 871.000002861023 A 8 8 0 0 1 2032.0000014305115 863.000002861023 L 2032.0000014305115 801.000002861023 L 2032.0000014305115 801.000002861023 A 8 8 0 0 1 2040.0000014305115 793.000002861023 L 2306.0000014305115 793.000002861023 Z" fill-opacity="1" stroke-opacity="1" stroke-miterlimit="10" stroke-width="5"/><text fill="rgb(255,255,255)" stroke="none" font-family="Avenir, Helvetica, Arial, sans-serif" font-size="32px" font-style="normal" font-weight="bold" text-decoration="normal" x="2306.0000014305115" y="848.000002861023" text-anchor="middle" dominant-baseline="text-after-edge" fill-opacity="1">oauth_client_oauth_token</text><path fill="rgb(0,0,0)" stroke="rgb(0,0,0)" paint-order="fill stroke markers" d=" M 2306.0000014305115 926.0000035762787 L 2572.0000014305115 926.0000035762787 L 2572.0000014305115 926.0000035762787 A 8 8 0 0 1 2580.0000014305115 934.0000035762787 L 2580.0000014305115 996.0000035762787 L 2580.0000014305115 996.0000035762787 A 8 8 0 0 1 2572.0000014305115 1004.0000035762787 L 2040.0000014305115 1004.0000035762787 L 2040.0000014305115 1004.0000035762787 A 8 8 0 0 1 2032.0000014305115 996.0000035762787 L 2032.0000014305115 934.0000035762787 L 2032.0000014305115 934.0000035762787 A 8 8 0 0 1 2040.0000014305115 926.0000035762787 L 2306.0000014305115 926.0000035762787 Z" fill-opacity="1" stroke-opacity="1" stroke-miterlimit="10" stroke-width="5"/><text fill="rgb(255,255,255)" stroke="none" font-family="Avenir, Helvetica, Arial, sans-serif" font-size="32px" font-style="normal" font-weight="bold" text-decoration="normal" x="2306.0000014305115" y="981.0000035762787" text-anchor="middle" dominant-baseline="text-after-edge" fill-opacity="1">organization_email</text><g transform="scale(5,5) translate(-57.7,-9.200000000000001)"/></g></svg>